# xmcd
# 
# Track frame offsets:
#     150
#     20542
#     39802
#     60297
#     79552
#     102695
#     121835
#     142712
#     160570
#     177490
# 
# Disc length: 2668
# 
# Revision: 0
# Processed by: cddbd v1.5.2PL0 Copyright (c) Steve Scherf et al.
# Submitted via: fre:ac v1.0.17
# 
DISCID=6c0a6a0a
DTITLE=Eurythmics - Revenge
DYEAR=1986
DGENRE=Pop
TTITLE0=Missionary Man
TTITLE1=Thorn In My Side
TTITLE2=When Tomorrow Comes
TTITLE3=The Last Time
TTITLE4=The Miracle Of Love
TTITLE5=Lets Go!
TTITLE6=Take Your Pain Away
TTITLE7=A Little Of You
TTITLE8=In This Town
TTITLE9=I Remember You
EXTD=
EXTT0=
EXTT1=
EXTT2=
EXTT3=
EXTT4=
EXTT5=
EXTT6=
EXTT7=
EXTT8=
EXTT9=
PLAYORDER=
